{"title":"Ghost.Adventures.S04E26.(S05E02.or.S05E05.or.IDK!).Tooele.Hospit","uid":6428399,"size":366837760,"categoryP":"video","categoryS":"tv_shows","magnet":"?xt=urn:btih:22e007c0352e4006c06ab115a049879e6a27016c&amp;dn=Ghost.Adventures.S04E26.%28S05E02.or.S05E05.or.IDK%21%29.Tooele.Hospit&amp;tr=udp%3A%2F%2Ftracker.openbittorrent.com%3A80&amp;tr=udp%3A%2F%2Fopen.demonii.com%3A1337&amp;tr=udp%3A%2F%2Ftracker.coppersurfer.tk%3A6969&amp;tr=udp%3A%2F%2Fexodus.desync.com%3A6969","seeders":1,"leechers":1,"uploader":"trialNerror","files":1,"time":1306561052,"description":"Format                           : AVI\nFormat/Info                      : Audio Video Interleave\nFile size                        : 350 MiB\nDuration                         : 42mn 26s\nOverall bit rate                 : 1 152 Kbps\nWriting application              : VirtualDubMod 1.5.10.2 (build 2542/release)\nWriting library                  : VirtualDubMod build 2542/release\n\nVideo\nID                               : 0\nFormat                           : MPEG-4 Visual\nFormat profile                   : Advanced Simple@L5\nFormat settings, BVOP            : Yes\nFormat settings, QPel            : No\nFormat settings, GMC             : No warppoints\nFormat settings, Matrix          : Default (H.263)\nMuxing mode                      : Packed bitstream\nCodec ID                         : XVID\nCodec ID/Hint                    : XviD\nDuration                         : 42mn 26s\nBit rate                         : 1 017 Kbps\nWidth                            : 624 pixels\nHeight                           : 352 pixels\nDisplay aspect ratio             : 16:9\nFrame rate                       : 29.970 fps\nColor space                      : YUV\nChroma subsampling               : 4:2:0\nBit depth                        : 8 bits\nScan type                        : Progressive\nBits/(Pixel*Frame)               : 0.155\nStream size                      : 309 MiB (88%)\nWriting library                  : XviD 58\n\nAudio\nID                               : 1\nFormat                           : MPEG Audio\nFormat version                   : Version 1\nFormat profile                   : Layer 3\nMode                             : Joint stereo\nMode extension                   : MS Stereo\nCodec ID                         : 55\nCodec ID/Hint                    : MP3\nDuration                         : 42mn 26s\nBit rate mode                    : Variable\nBit rate                         : 121 Kbps\nChannel(s)                       : 2 channels\nSampling rate                    : 48.0 KHz\nStream size                      : 36.8 MiB (11%)\nAlignment                        : Aligned on interleaves\nInterleave, duration             : 24 ms (0.72 video frame)\nInterleave, preload duration     : 482 ms","torrent":{"xt":"urn:btih:22e007c0352e4006c06ab115a049879e6a27016c","amp;dn":"Ghost.Adventures.S04E26.%28S05E02.or.S05E05.or.IDK%21%29.Tooele.Hospit","amp;tr":["udp%3A%2F%2Ftracker.openbittorrent.com%3A80","udp%3A%2F%2Fopen.demonii.com%3A1337","udp%3A%2F%2Ftracker.coppersurfer.tk%3A6969","udp%3A%2F%2Fexodus.desync.com%3A6969"],"infoHash":"22e007c0352e4006c06ab115a049879e6a27016c","infoHashBuffer":{"type":"Buffer","data":[34,224,7,192,53,46,64,6,192,106,177,21,160,73,135,158,106,39,1,108]},"announce":[],"urlList":[]}}